<svg width="351" height="351" viewBox="0 0 351 351" fill="none" xmlns="http://www.w3.org/2000/svg">
<path d="M351 175.5C351 272.426 272.426 351 175.5 351C78.574 351 0 272.426 0 175.5C0 78.574 78.574 0 175.5 0C272.426 0 351 78.574 351 175.5Z" fill="black"/>
<path fill-rule="evenodd" clip-rule="evenodd" d="M175.5 338.715C265.641 338.715 338.715 265.641 338.715 175.5C338.715 85.3588 265.641 12.285 175.5 12.285C85.3588 12.285 12.285 85.3588 12.285 175.5C12.285 265.641 85.3588 338.715 175.5 338.715ZM175.5 351C272.426 351 351 272.426 351 175.5C351 78.574 272.426 0 175.5 0C78.574 0 0 78.574 0 175.5C0 272.426 78.574 351 175.5 351Z" fill="#57D56C"/>
<path d="M122.72 159.988H254.475V187.925H122.72V254.475H94.7828V187.925L94.7695 159.988L94.7828 94.7695H122.72V159.988ZM254.475 122.707H159.988V94.7695H254.475V122.707ZM254.475 254.475H159.988V226.537H254.475V254.475Z" fill="#57D56C"/>
</svg>
